# xmcd
#
# Track frame offsets:
#	150
#	16080
#	33980
#	51562
#	68037
#	82740
#	98940
#	117112
#	136172
#	154842
#	169292
#	183050
#	198177
#	208782
#	223245
#	233960
#	246290
#	261627
#	271880
#	283130
#
# Disc length: 3920
#
# Revision: 2
# Processed by: cddbd v1.5.1PL0 Copyright (c) Steve Scherf et al.
# Submitted via: dBpowerAMP V4.0
# Normalized: r0:DSETVAR1,TDELIM( - ),TSWAP
#
DISCID=250f4e14
DTITLE=Various Artist - Country Soft-n-Mellow cd-1
DYEAR=1989
DGENRE=Country
TTITLE0=Alabama - Feels so Right
TTITLE1=Ronnie Milsap - She Keeps The Home Fires Burning
TTITLE2=Eddie Rabbit And Juice Newton - Both to Each Other (Friends And Lovers)
TTITLE3=Don Williams - Love is on a Roll
TTITLE4=George Strait - Does Ft. Worth Ever Cross Your Mind
TTITLE5=Lee Greenwood - Somebody's Gonna Love You
TTITLE6=Early Thomas Conley - What She is (is a Woman in Love)
TTITLE7=Restless Heart - I'll Still be Loving You
TTITLE8=k. t. Oslin - I'll Always Come Back
TTITLE9=George Strait - You Look so Good in Love
TTITLE10=Alabama - Face to Face
TTITLE11=Lee Greenwood - Going, Going, Gone
TTITLE12=Jim Reeves - Memories Are Made of This
TTITLE13=Lee Greenwood - Only You (And You Alone)
TTITLE14=Jim ed Brown - Yesterday
TTITLE15=Dolly Parton - Elusive Butterfly
TTITLE16=Willie Nelson - Everybody's Talkin'
TTITLE17=Eddy Arnold - Gentle on my Mind
TTITLE18=Eddy Arnold - What a Wonderful World
TTITLE19=Sonny James - I'll Never Find Another You
EXTD=
EXTT0=
EXTT1=
EXTT2=
EXTT3=
EXTT4=
EXTT5=
EXTT6=
EXTT7=
EXTT8=
EXTT9=
EXTT10=
EXTT11=
EXTT12=
EXTT13=
EXTT14=
EXTT15=
EXTT16=
EXTT17=
EXTT18=
EXTT19=
PLAYORDER=
